<?xml version="1.0" standalone="no"?>
<!DOCTYPE svg PUBLIC "-//W3C//DTD SVG 20010904//EN"
 "http://www.w3.org/TR/2001/REC-SVG-20010904/DTD/svg10.dtd">
<svg version="1.0" xmlns="http://www.w3.org/2000/svg"
 width="512.000000pt" height="512.000000pt" viewBox="0 0 512.000000 512.000000"
 preserveAspectRatio="xMidYMid meet">
<metadata>
Created by potrace 1.14, written by Peter Selinger 2001-2017
</metadata>
<g transform="translate(0.000000,512.000000) scale(0.100000,-0.100000)"
fill="#000000" stroke="none">
<path d="M2320 5074 c-570 -65 -1051 -279 -1455 -647 -689 -627 -974 -1578
-745 -2482 227 -895 950 -1607 1850 -1823 435 -105 937 -87 1350 49 391 128
725 333 1015 624 398 399 647 903 715 1449 86 692 -107 1373 -543 1911 -334
412 -814 718 -1342 855 -183 47 -309 62 -565 65 -135 2 -261 1 -280 -1z m410
-273 c792 -62 1490 -538 1840 -1256 265 -543 299 -1166 94 -1731 -351 -972
-1311 -1577 -2335 -1474 -728 74 -1374 501 -1734 1148 -106 189 -195 435 -236
646 -52 268 -52 607 1 876 68 350 236 700 476 989 464 559 1169 858 1894 802z"/>
<path d="M2626 4033 c-3 -4 -6 -196 -6 -428 0 -232 -3 -424 -6 -428 -3 -3 -27
7 -53 23 -96 60 -240 106 -376 121 -295 32 -582 -69 -794 -281 -177 -179 -269
-383 -288 -640 -7 -102 16 -261 52 -355 95 -253 284 -448 524 -544 138 -54
189 -61 464 -61 l247 0 0 215 0 215 -204 0 c-235 0 -285 7 -382 55 -119 58
-224 189 -253 316 -63 270 120 562 395 633 171 44 356 -1 492 -120 51 -45 51
-45 63 -22 134 256 256 396 484 556 l67 47 -1 344 c0 189 -4 347 -7 350 -8 8
-410 11 -418 4z"/>
<path d="M3672 3309 c-320 -38 -622 -196 -811 -424 -107 -128 -151 -207 -194
-340 -45 -140 -48 -190 -45 -665 l3 -445 213 -3 c166 -2 212 0 212 10 0 7 1
213 3 458 3 431 4 447 25 505 68 182 210 326 401 405 119 49 195 63 366 69
l160 6 0 215 0 215 -130 1 c-71 1 -163 -2 -203 -7z"/>
</g>
</svg>
