<?xml version="1.0" standalone="no"?>
<!DOCTYPE svg PUBLIC "-//W3C//DTD SVG 20010904//EN"
 "http://www.w3.org/TR/2001/REC-SVG-20010904/DTD/svg10.dtd">
<svg version="1.0" xmlns="http://www.w3.org/2000/svg"
 width="512.000000pt" height="512.000000pt" viewBox="0 0 512.000000 512.000000"
 preserveAspectRatio="xMidYMid meet">
<metadata>
Created by potrace 1.14, written by Peter Selinger 2001-2017
</metadata>
<g transform="translate(0.000000,512.000000) scale(0.100000,-0.100000)"
fill="#000000" stroke="none">
<path d="M2340 4888 c-25 -5 -56 -8 -70 -8 -21 0 -172 -27 -250 -44 -86 -19
-129 -31 -159 -44 -19 -7 -42 -15 -50 -17 -29 -6 -156 -57 -168 -67 -7 -6 -13
-8 -13 -5 0 7 -182 -82 -190 -92 -3 -3 -10 -7 -17 -8 -11 -2 -77 -43 -100 -63
-7 -5 -15 -10 -18 -10 -8 0 -119 -76 -136 -93 -8 -7 -21 -18 -30 -23 -55 -31
-291 -257 -369 -353 -19 -23 -43 -51 -52 -62 -10 -10 -18 -22 -18 -25 0 -3
-15 -24 -33 -47 -19 -23 -42 -57 -53 -74 -10 -18 -22 -33 -27 -33 -4 0 -6 -4
-3 -9 3 -5 -1 -14 -9 -21 -8 -7 -15 -18 -15 -25 0 -8 -4 -15 -8 -17 -11 -4
-64 -98 -56 -98 4 0 0 -8 -8 -17 -9 -10 -19 -28 -22 -40 -4 -13 -11 -23 -15
-23 -4 0 -8 -6 -8 -12 -1 -7 -21 -60 -46 -118 -24 -58 -45 -108 -46 -112 -3
-15 -13 -44 -22 -66 -5 -13 -7 -28 -4 -33 4 -5 2 -9 -3 -9 -5 0 -9 -6 -10 -12
0 -7 -3 -20 -5 -28 -2 -8 -7 -32 -12 -53 -4 -20 -11 -40 -16 -42 -4 -3 -6 -12
-3 -19 3 -8 0 -33 -6 -57 -14 -52 -15 -60 -36 -239 -11 -97 -4 -404 11 -490 3
-19 8 -55 10 -80 2 -25 5 -46 6 -47 1 -2 3 -7 4 -13 1 -5 4 -11 5 -12 1 -2 3
-16 5 -33 1 -16 3 -30 5 -30 1 0 4 -16 7 -35 2 -19 9 -41 15 -48 6 -7 9 -15 6
-18 -3 -2 12 -55 34 -117 21 -62 40 -116 42 -122 26 -92 227 -457 296 -538 6
-6 21 -26 33 -43 49 -68 277 -314 292 -314 1 0 18 -14 36 -30 46 -44 215 -170
227 -170 5 0 15 -7 22 -15 7 -8 24 -21 39 -28 42 -21 76 -41 81 -49 11 -14
260 -128 276 -127 4 0 10 -3 13 -8 3 -5 40 -19 81 -33 41 -13 80 -26 85 -29 6
-3 19 -7 30 -8 11 -2 27 -6 35 -10 18 -7 10 -5 90 -22 36 -7 72 -15 80 -18 21
-8 39 -12 85 -18 103 -13 155 -18 212 -19 35 0 63 -4 63 -8 0 -4 11 -3 24 2
13 5 26 7 29 4 6 -7 97 -10 97 -4 0 3 16 5 35 5 19 0 35 -4 35 -8 0 -5 3 -6 8
-4 6 4 60 12 162 22 14 2 25 4 25 4 0 1 20 4 45 6 47 5 85 12 85 16 0 2 6 3
83 15 23 4 42 10 42 14 0 5 11 7 25 5 14 -1 25 2 25 8 0 6 3 8 6 4 3 -3 25 1
47 10 23 8 49 16 57 18 56 13 287 112 314 134 10 9 20 15 22 13 3 -2 31 11 62
29 31 18 60 32 65 31 4 -1 7 3 7 8 0 6 4 10 9 10 9 0 131 81 178 117 113 88
138 110 237 208 56 55 125 127 152 160 27 33 54 65 60 72 24 25 172 250 200
303 16 30 33 58 37 61 5 3 8 8 7 10 -1 2 13 36 31 74 18 39 33 75 34 80 0 6 6
19 12 30 20 38 62 163 56 169 -4 3 -2 6 4 6 5 0 16 29 23 65 7 36 16 65 20 65
3 0 6 8 6 18 1 20 12 79 20 104 3 9 6 32 8 50 2 18 7 49 10 68 22 122 31 460
12 472 -8 6 -8 8 1 8 7 0 10 9 7 23 -3 12 -7 49 -10 82 -3 33 -9 74 -13 90 -4
17 -7 40 -6 53 1 12 -1 22 -5 22 -3 0 -6 10 -7 23 -1 12 -3 31 -6 42 -3 11
-12 49 -21 85 -8 36 -24 91 -35 123 -11 32 -20 62 -19 65 1 4 -6 21 -15 39 -9
18 -17 37 -17 42 0 15 -118 269 -130 281 -3 3 -14 22 -25 43 -11 20 -23 37
-27 37 -5 0 -8 7 -8 15 0 9 -4 21 -10 28 -36 43 -100 136 -100 145 0 6 -3 12
-7 14 -5 2 -42 44 -84 93 -126 149 -288 303 -371 353 -16 9 -28 19 -28 23 0 4
-20 19 -44 33 -25 14 -51 32 -58 39 -12 12 -45 32 -128 80 -66 37 -225 114
-285 137 -33 12 -73 28 -90 35 -53 23 -245 76 -245 68 0 -3 -6 -1 -12 5 -7 5
-33 12 -58 16 -25 3 -56 8 -70 10 -35 7 -97 16 -150 22 -79 9 -413 10 -460 2z"/>
</g>
</svg>
